<svg xmlns="http://www.w3.org/2000/svg" xmlns:xlink="http://www.w3.org/1999/xlink" width="200" height="98" viewBox="0 0 200 98">
  <defs>
    <filter id="Rectangle_65" x="0" y="0" width="200" height="98" filterUnits="userSpaceOnUse">
      <feOffset dy="6" input="SourceAlpha"/>
      <feGaussianBlur stdDeviation="4" result="blur"/>
      <feFlood flood-opacity="0.161"/>
      <feComposite operator="in" in2="blur"/>
      <feComposite in="SourceGraphic"/>
    </filter>
    <filter id="Path_4896" x="25" y="21" width="41.686" height="51" filterUnits="userSpaceOnUse">
      <feOffset dy="3" input="SourceAlpha"/>
      <feGaussianBlur stdDeviation="3" result="blur-2"/>
      <feFlood flood-opacity="0.251"/>
      <feComposite operator="in" in2="blur-2"/>
      <feComposite in="SourceGraphic"/>
    </filter>
    <filter id="Path_4897">
      <feOffset dy="3" input="SourceAlpha"/>
      <feGaussianBlur stdDeviation="3" result="blur-3"/>
      <feFlood flood-opacity="0.161" result="color"/>
      <feComposite operator="out" in="SourceGraphic" in2="blur-3"/>
      <feComposite operator="in" in="color"/>
      <feComposite operator="in" in2="SourceGraphic"/>
    </filter>
    <filter id="Path_4898" x="52.326" y="21.048" width="50.953" height="50.952" filterUnits="userSpaceOnUse">
      <feOffset dy="3" input="SourceAlpha"/>
      <feGaussianBlur stdDeviation="3" result="blur-4"/>
      <feFlood flood-opacity="0.251"/>
      <feComposite operator="in" in2="blur-4"/>
      <feComposite in="SourceGraphic"/>
    </filter>
    <filter id="Path_4899" x="90.006" y="21" width="23.295" height="51" filterUnits="userSpaceOnUse">
      <feOffset dy="3" input="SourceAlpha"/>
      <feGaussianBlur stdDeviation="3" result="blur-5"/>
      <feFlood flood-color="#252525" flood-opacity="0.251"/>
      <feComposite operator="in" in2="blur-5"/>
      <feComposite in="SourceGraphic"/>
    </filter>
    <filter id="Path_4900" x="100.927" y="21" width="41.828" height="51" filterUnits="userSpaceOnUse">
      <feOffset dy="3" input="SourceAlpha"/>
      <feGaussianBlur stdDeviation="3" result="blur-6"/>
      <feFlood flood-opacity="0.251"/>
      <feComposite operator="in" in2="blur-6"/>
      <feComposite in="SourceGraphic"/>
    </filter>
    <filter id="Path_4901" x="128.536" y="21" width="45.894" height="51" filterUnits="userSpaceOnUse">
      <feOffset dy="3" input="SourceAlpha"/>
      <feGaussianBlur stdDeviation="3" result="blur-7"/>
      <feFlood flood-opacity="0.251"/>
      <feComposite operator="in" in2="blur-7"/>
      <feComposite in="SourceGraphic"/>
    </filter>
  </defs>
  <g id="Group_583" data-name="Group 583" transform="translate(-127 6)">
    <g transform="matrix(1, 0, 0, 1, 127, -6)" filter="url(#Rectangle_65)">
      <path id="Rectangle_65-2" data-name="Rectangle 65" d="M0,0H176a0,0,0,0,1,0,0V49a25,25,0,0,1-25,25H25A25,25,0,0,1,0,49V0A0,0,0,0,1,0,0Z" transform="translate(12 6)" fill="#55338a"/>
    </g>
    <g id="Big_Logo" data-name="Big Logo" transform="translate(582.611 1585.844)">
      <g transform="matrix(1, 0, 0, 1, -455.61, -1591.84)" filter="url(#Path_4896)">
        <path id="Path_4896-2" data-name="Path 4896" d="M-416.316-1538.463v6.619h-5.295v-25.766h5.295v13.852h6.477a5.859,5.859,0,0,0,3.711-1.158,7.069,7.069,0,0,0,2.222-2.931,9.58,9.58,0,0,0,.709-3.806,10.192,10.192,0,0,0-.756-3.806,7.073,7.073,0,0,0-2.222-2.931,5.79,5.79,0,0,0-3.664-1.158h-11.772v-5.3h11.772a11.3,11.3,0,0,1,5.2,1.135,11.328,11.328,0,0,1,3.711,2.978,12.835,12.835,0,0,1,2.245,4.231,15.973,15.973,0,0,1,.756,4.846,16.438,16.438,0,0,1-.733,4.846,12.494,12.494,0,0,1-2.222,4.231,11.253,11.253,0,0,1-3.735,2.979,11.443,11.443,0,0,1-5.224,1.134Zm3.31-17.114h2.931a2.435,2.435,0,0,1,1.726.638,3.842,3.842,0,0,1,1.017,1.631,6.623,6.623,0,0,1,.331,2.1,6.618,6.618,0,0,1-.331,2.1,3.846,3.846,0,0,1-1.017,1.632,2.435,2.435,0,0,1-1.726.638h-2.931Z" transform="translate(455.61 1591.84)" fill="#fff"/>
      </g>
      <g data-type="innerShadowGroup">
        <path id="Path_4897-2" data-name="Path 4897" d="M-269.586-1524.651a6.02,6.02,0,0,0-2.411.488,6.236,6.236,0,0,0-1.953,1.312,5.911,5.911,0,0,0-1.282,1.922,6.135,6.135,0,0,0-.458,2.38,6.359,6.359,0,0,0,.458,2.411,5.822,5.822,0,0,0,1.282,1.953,6.219,6.219,0,0,0,1.953,1.312,6,6,0,0,0,2.411.488,5.782,5.782,0,0,0,2.38-.488,6.317,6.317,0,0,0,1.922-1.312,6.227,6.227,0,0,0,1.312-1.953,6.014,6.014,0,0,0,.488-2.411,5.9,5.9,0,0,0-1.77-4.333A5.9,5.9,0,0,0-269.586-1524.651Z" transform="translate(-108.198 -29.802)" fill="#ffc90a"/>
        <g transform="matrix(1, 0, 0, 1, -455.61, -1591.84)" filter="url(#Path_4897)">
          <path id="Path_4897-3" data-name="Path 4897" d="M-269.586-1524.651a6.02,6.02,0,0,0-2.411.488,6.236,6.236,0,0,0-1.953,1.312,5.911,5.911,0,0,0-1.282,1.922,6.135,6.135,0,0,0-.458,2.38,6.359,6.359,0,0,0,.458,2.411,5.822,5.822,0,0,0,1.282,1.953,6.219,6.219,0,0,0,1.953,1.312,6,6,0,0,0,2.411.488,5.782,5.782,0,0,0,2.38-.488,6.317,6.317,0,0,0,1.922-1.312,6.227,6.227,0,0,0,1.312-1.953,6.014,6.014,0,0,0,.488-2.411,5.9,5.9,0,0,0-1.77-4.333A5.9,5.9,0,0,0-269.586-1524.651Z" transform="translate(347.41 1562.04)" fill="#fff"/>
        </g>
      </g>
      <g transform="matrix(1, 0, 0, 1, -455.61, -1591.84)" filter="url(#Path_4898)">
        <path id="Path_4898-2" data-name="Path 4898" d="M-284.253-1554.614a16.493,16.493,0,0,0-3.541-5.224,16.95,16.95,0,0,0-5.24-3.522,15.909,15.909,0,0,0-6.4-1.3,16.078,16.078,0,0,0-6.421,1.3,16.581,16.581,0,0,0-5.24,3.522,16.7,16.7,0,0,0-3.517,5.224,15.964,15.964,0,0,0-1.3,6.406,16.128,16.128,0,0,0,1.3,6.43,16.62,16.62,0,0,0,3.517,5.248,16.567,16.567,0,0,0,5.24,3.522,16.059,16.059,0,0,0,6.421,1.3,15.891,15.891,0,0,0,6.4-1.3,16.935,16.935,0,0,0,5.24-3.522,16.413,16.413,0,0,0,3.541-5.248,16.131,16.131,0,0,0,1.3-6.43A15.967,15.967,0,0,0-284.253-1554.614Zm-4.871,10.756a11.543,11.543,0,0,1-2.387,3.569,11.06,11.06,0,0,1-3.546,2.411,10.882,10.882,0,0,1-4.349.874,10.877,10.877,0,0,1-4.35-.874,11.309,11.309,0,0,1-3.569-2.411,11.319,11.319,0,0,1-2.411-3.569,10.874,10.874,0,0,1-.875-4.349,10.88,10.88,0,0,1,.875-4.35,11.062,11.062,0,0,1,2.411-3.546,11.543,11.543,0,0,1,3.569-2.388,10.9,10.9,0,0,1,4.35-.875,10.9,10.9,0,0,1,4.349.875,11.284,11.284,0,0,1,3.546,2.388,11.276,11.276,0,0,1,2.387,3.546,10.9,10.9,0,0,1,.875,4.35A10.892,10.892,0,0,1-289.124-1543.858Z" transform="translate(377.23 1591.71)" fill="#fff"/>
      </g>
      <g transform="matrix(1, 0, 0, 1, -455.61, -1591.84)" filter="url(#Path_4899)">
        <path id="Path_4899-2" data-name="Path 4899" d="M-164.859-1531.844h-5.3v-33h5.3Z" transform="translate(269.16 1591.84)" fill="#fff"/>
      </g>
      <g transform="matrix(1, 0, 0, 1, -455.61, -1591.84)" filter="url(#Path_4900)">
        <path id="Path_4900-2" data-name="Path 4900" d="M-109.378-1542.718v-22.126h5.3v33h-4.775l-13.758-22.032v22.032h-5.295v-33h4.775Z" transform="translate(237.84 1591.84)" fill="#fff"/>
      </g>
      <g transform="matrix(1, 0, 0, 1, -455.61, -1591.84)" filter="url(#Path_4901)">
        <path id="Path_4901-2" data-name="Path 4901" d="M6.782-1564.844v5.3h-11.3v27.7h-5.3v-27.7h-11.3v-5.3Z" transform="translate(158.65 1591.84)" fill="#fff"/>
      </g>
    </g>
  </g>
</svg>
